<svg width="621" height="634" viewBox="0 0 621 634" fill="none" xmlns="http://www.w3.org/2000/svg">
<path fill-rule="evenodd" clip-rule="evenodd" d="M304.315 68.9265C347.299 79.9638 391.32 71.7599 434.548 81.8009C491.829 95.1061 562.547 91.0553 598.827 137.336C634.497 182.839 616.555 249.787 611.376 307.372C606.551 361.007 598.115 414.847 569.747 460.62C541.826 505.674 496.856 535.002 452.409 563.878C405.927 594.076 359.488 638.381 304.315 633.06C249.045 627.729 221.172 562.312 171.844 536.819C119.142 509.582 34.0395 531.852 6.65493 479.226C-21.1851 425.725 46.9806 367.435 52.4479 307.372C57.2289 254.849 23.5444 203.834 36.3793 152.68C50.8749 94.9063 71.8948 21.0499 128.746 3.27882C189.414 -15.6853 242.749 53.118 304.315 68.9265Z" fill="#f78f2088"/>
</svg>
